<?xml version="1.0" encoding="UTF-8"?>
<!DOCTYPE svg PUBLIC "-//W3C//DTD SVG 1.1//EN" "http://www.w3.org/Graphics/SVG/1.1/DTD/svg11.dtd">
<!-- Creator: CorelDRAW X7 -->
<svg xmlns="http://www.w3.org/2000/svg" xml:space="preserve" width="17.5417in" height="7.542in" version="1.1" style="shape-rendering:geometricPrecision; text-rendering:geometricPrecision; image-rendering:optimizeQuality; fill-rule:evenodd; clip-rule:evenodd"
viewBox="0 0 16368 7038"
 xmlns:xlink="http://www.w3.org/1999/xlink">
 <defs>
  <style type="text/css">
   <![CDATA[
    .fil0 {fill:#5C6AC4}
   ]]>
  </style>
 </defs>
 <g id="Layer_x0020_1">
  <metadata id="CorelCorpID_0Corel-Layer"/>
  <path class="fil0" d="M0 0l16368 0 0 4888c-67,27 -154,88 -260,182 -65,55 -148,130 -248,225 -54,51 -116,111 -187,181 -84,82 -185,183 -302,303 -97,103 -220,227 -368,374 -94,95 -247,229 -460,401 -174,139 -375,259 -604,359 -162,67 -332,107 -510,121 -193,13 -392,-9 -597,-67 -211,-60 -439,-160 -683,-301 -96,-51 -227,-151 -392,-300 -191,-168 -353,-307 -488,-415 -1177,-990 -2368,-1540 -3571,-1647 -756,-60 -1675,90 -2755,450 -1135,427 -2362,674 -3682,740 -485,48 -905,-24 -1261,-214l0 -5280z"/>
 </g>
</svg>
